# xmcd
#
# Track frame offsets:
#	182
#	14135
#	25906
#	40563
#	53320
#	63298
#	79987
#	92153
#	107386
#	111569
#	133645
#	144659
#	159113
#	173541
#	189092
#	203481
#	218844
#	234628
#
# Disc length: 3289 seconds
#
# Revision: 1
# Processed by: cddbd v1.5.1PL0 Copyright (c) Steve Scherf et al.
# Submitted via: audiograbber 1.83.01
#
DISCID=e20cd712
DTITLE=Various Artists w/Django Reinhardt - Magic strings (Intégrale vol4 - Dis
DTITLE=c2)
DYEAR=1936
DGENRE=Jazz
TTITLE0=Jean Sablon, Avec Accompagnement D;Orchestre - Cette Chanson Est Pour V
TTITLE0=ous (1935-12-07)
TTITLE1=Jean Sablon, Avec Accompagnement D;Orchestre - Rendez-vous Sous La Plui
TTITLE1=e (1935-12-07)
TTITLE2=Jean Tranchant, Accompagne Par Michel Emar Et Son Orchestre - L'amour E
TTITLE2=n Voyage (1936-01-14)
TTITLE3=Programme Radiophonique Du "Micro De La Redoute" - Les Baisers Prisonni
TTITLE3=ers (February 1936)
TTITLE4=Programme Radiophonique Du "Micro De La Redoute" - Mon Bateau Est Si Pe
TTITLE4=tit (February 1936)
TTITLE5=Programme Radiophonique Du "Micro De La Redoute" - Quand Il Est Tard (F
TTITLE5=ebruary 1936)
TTITLE6=Programme Radiophonique Du "Micro De La Redoute" - Le Piano Mécanique (
TTITLE6=February 1936)
TTITLE7=Programme Radiophonique Du "Micro De La Redoute" - Ici L'on Pêche (Febr
TTITLE7=uary 1936)
TTITLE8=Jean Sablon Et Ses Amis (Jean Sablon and His Friends) - La Jambe En Boi
TTITLE8=s (1936-02-29)
TTITLE9=Jean Sablon Et Ses Amis (Jean Sablon and His Friends) - Miss Otis Regre
TTITLE9=ts(1936-02-29)
TTITLE10=Jean Sablon Et Ses Amis (Jean Sablon and His Friends) - Blue Drag n°2 
TTITLE10=(1936-02-29)
TTITLE11=Yvonne Louis, Avec Accompagnement D'Orchestre - Au Grand Large (1936-0
TTITLE11=3-12)
TTITLE12=Michel Warlop and Son Orchestre - Cloud Castles (1936-04-17)
TTITLE13=Michel Warlop and Son Orchestre - Magic Strings (1936-04-17)
TTITLE14=Michel Warlop and Son Orchestre - Sweet Serenade (1936-04-17)
TTITLE15=Michel Warlop and Son Orchestre - Crazy Strings (1936-04-17)
TTITLE16=Michel Warlop and Son Orchestre - Novel Pets (1936-04-17)
TTITLE17=Michel Warlop and Son Orchestre - Budding Dancers (1936-04-17)
EXTD=YEAR: 1936
EXTT0=
EXTT1=
EXTT2=
EXTT3=
EXTT4=
EXTT5=
EXTT6=
EXTT7=
EXTT8=
EXTT9=
EXTT10=
EXTT11=
EXTT12=
EXTT13=
EXTT14=
EXTT15=
EXTT16=
EXTT17=
PLAYORDER=
